<?xml version="1.0" standalone="no"?><!DOCTYPE svg PUBLIC "-//W3C//DTD SVG 1.1//EN" "http://www.w3.org/Graphics/SVG/1.1/DTD/svg11.dtd"><svg t="1767380608093" class="icon" viewBox="0 0 1024 1024" version="1.1" xmlns="http://www.w3.org/2000/svg" p-id="2104" xmlns:xlink="http://www.w3.org/1999/xlink" width="200" height="200"><path d="M87.04 880.64s33.28 30.72 33.28 74.24c0 12.8-20.48 28.16-17.92 28.16 69.12-7.68 145.92-40.96 145.92-40.96s64-30.72 112.64-71.68c35.84-30.72 56.32-84.48 56.32-84.48s15.36-30.72 33.28-71.68c17.92-38.4 38.4-81.92 38.4-81.92s7.68-20.48 20.48-40.96c10.24-15.36 33.28-30.72 33.28-30.72s-7.68-2.56-15.36-2.56c-5.12 0-15.36 5.12-15.36 5.12s-17.92 12.8-35.84 35.84c-25.6 33.28-61.44 92.16-92.16 133.12-53.76 74.24-76.8 102.4-179.2 133.12-51.2 17.92-117.76 15.36-117.76 15.36z" fill="#FCC100" p-id="2105"></path><path d="M1011.2 675.84c-5.12 33.28-15.36 76.8-112.64 46.08l-320-120.32h-2.56l345.6-5.12c89.6-5.12 97.28 43.52 89.6 79.36z" fill="#00AA92" p-id="2106"></path><path d="M1018.88 501.76c5.12 33.28 10.24 79.36-92.16 79.36l-343.04-10.24h-2.56l325.12-115.2c87.04-30.72 107.52 12.8 112.64 46.08z" fill="#0080B5" p-id="2107"></path><path d="M952.32 322.56c17.92 30.72 40.96 66.56-53.76 110.08l-317.44 128c2.56 0 5.12-2.56-2.56 0l250.88-235.52c66.56-64 104.96-33.28 122.88-2.56z" fill="#0053B3" p-id="2108"></path><path d="M834.56 189.44c28.16 20.48 61.44 51.2-12.8 120.32L563.2 537.6s5.12-5.12 0 2.56l158.72-307.2c38.4-81.92 84.48-66.56 112.64-43.52z" fill="#0054A1" p-id="2109"></path><path d="M673.28 102.4c33.28 10.24 74.24 25.6 28.16 117.76L537.6 522.24c0-2.56 2.56-5.12 0 2.56l43.52-343.04c10.24-89.6 58.88-89.6 92.16-79.36z" fill="#42148A" p-id="2110"></path><path d="M33.28 737.28c-10.24-33.28-23.04-76.8 76.8-92.16l340.48-46.08c-2.56 0-5.12 2.56 2.56 0L151.04 762.88c-79.36 46.08-107.52 7.68-117.76-25.6z" fill="#EF9700" p-id="2111"></path><path d="M488.96 71.68c35.84-2.56 79.36-2.56 69.12 99.84L512 514.56v2.56L432.64 179.2c-25.6-87.04 20.48-104.96 56.32-107.52z" fill="#790B84" p-id="2112"></path><path d="M307.2 115.2c33.28-12.8 74.24-28.16 99.84 69.12l74.24 335.36c0-2.56-2.56-5.12 0 2.56L289.28 235.52c-51.2-74.24-15.36-107.52 17.92-120.32z" fill="#CA017B" p-id="2113"></path><path d="M112.64 483.84l327.68 99.84h2.56l-343.04 25.6C10.24 619.52 0 570.88 2.56 535.04c2.56-33.28 10.24-76.8 110.08-51.2z" fill="#EC5F01" p-id="2114"></path><path d="M53.76 368.64c15.36-30.72 38.4-69.12 120.32-10.24l271.36 209.92c-2.56 0-5.12-2.56 2.56 0L117.76 471.04c-89.6-23.04-81.92-71.68-64-102.4z" fill="#DA0147" p-id="2115"></path><path d="M161.28 222.72c25.6-23.04 58.88-51.2 117.76 33.28l179.2 291.84s-5.12-5.12 0 0L184.32 340.48c-71.68-53.76-48.64-94.72-23.04-117.76z" fill="#E60074" p-id="2116"></path><path d="M619.52 657.92c-23.04-20.48-43.52-35.84-43.52-38.4-2.56 2.56-7.68 5.12-15.36 12.8s-20.48 20.48-30.72 35.84c-7.68 12.8-15.36 25.6-23.04 40.96-5.12 12.8-12.8 28.16-17.92 43.52-10.24 25.6-15.36 46.08-15.36 46.08s-64 215.04-66.56 220.16h322.56c-5.12-7.68-28.16-40.96-53.76-79.36-15.36-28.16-28.16-53.76-38.4-79.36-10.24-30.72-17.92-58.88-17.92-84.48 0-17.92 2.56-35.84 10.24-48.64l2.56-2.56s2.56-2.56 2.56-5.12c2.56-2.56 7.68-7.68 15.36-10.24 5.12 0 7.68-2.56 12.8-2.56h10.24l158.72 138.24c79.36 66.56 102.4 28.16 120.32-2.56 17.92-30.72 28.16-76.8-56.32-107.52l-322.56-117.76c7.68 5.12 2.56 2.56 2.56 0l43.52 40.96z" fill="#5BB627" p-id="2117"></path></svg>