<?xml version="1.0" standalone="no"?><!DOCTYPE svg PUBLIC "-//W3C//DTD SVG 1.1//EN" "http://www.w3.org/Graphics/SVG/1.1/DTD/svg11.dtd"><svg t="1766842111355" class="icon" viewBox="0 0 1024 1024" version="1.1" xmlns="http://www.w3.org/2000/svg" p-id="6105" xmlns:xlink="http://www.w3.org/1999/xlink" width="200" height="200"><path d="M435.931429 707.291429v116.882285c0 9.728 9.728 19.748571 19.748571 19.748572h244.004571c9.728 0 19.748571-9.728 19.748572-19.748572V707.218286c0-9.728-9.728-19.748571-19.748572-19.748572h-244.297142c-9.801143 0.658286-19.456 5.339429-19.456 19.748572zM915.968 18.797714H102.546286C52.809143 18.870857 12.068571 59.684571 12.068571 109.348571V923.062857c0 49.664 40.813714 90.477714 90.477715 90.477714h813.787428c49.737143 0 90.477714-40.813714 90.477715-90.477714V109.421714A91.282286 91.282286 0 0 0 915.968 18.870857z m-401.993143 112.64a58.221714 58.221714 0 0 1 68.388572 0c19.748571 14.774857 33.792 33.792 33.792 58.660572s-14.774857 48.493714-33.792 58.660571a58.221714 58.221714 0 0 1-68.388572 0c-19.748571-14.848-33.792-33.865143-33.792-58.660571 0-24.868571 9.362286-48.932571 33.792-58.660572z m326.729143 390.436572s0 5.046857 0 0H601.746286V629.028571h209.773714v185.344c0 43.812571-33.792 78.043429-78.043429 78.043429H342.674286V629.028571h151.552V399.945143h107.154285v63.341714h238.884572v58.660572h0.438857z m0-175.616c0 5.12-5.12 14.774857-14.848 14.774857H323.584c-9.728 0-14.774857 5.12-14.774857 9.801143v283.062857s5.046857 214.893714-136.777143 263.387428c-9.654857 5.12-14.774857 5.12-14.774857-5.046857v-63.341714c0-5.046857 0-5.046857 5.12-5.046857 29.476571-29.476571 43.812571-87.771429 43.812571-156.16V297.837714c0-5.12 5.12-14.848 14.774857-14.848h614.546286c5.12 0 14.848 5.12 14.848 14.848v48.493715h-9.654857z" fill="#C5092C" p-id="6106"></path></svg>